<?xml version="1.0" encoding="UTF-8"?>
<svg version="1.1" xmlns="http://www.w3.org/2000/svg" width="318" height="356">
<path d="M0 0 C104.94 0 209.88 0 318 0 C318 117.48 318 234.96 318 356 C213.06 356 108.12 356 0 356 C0 238.52 0 121.04 0 0 Z " fill="#FDFDFD" transform="translate(0,0)"/>
<path d="M0 0 C1.09973145 0.71728271 2.19946289 1.43456543 3.33251953 2.17358398 C3.93546844 2.55349991 4.53841736 2.93341583 5.15963745 3.32484436 C6.41315051 4.11619949 7.65924822 4.91941711 8.89782715 5.73394775 C11.6237718 7.51233874 14.426041 9.1584989 17.22314453 10.82202148 C19.43000675 12.16521373 21.63569945 13.51032903 23.84033203 14.85717773 C25.05244821 15.59566158 26.26469101 16.33393762 27.47705078 17.07202148 C29.98176697 18.59710715 32.48595057 20.12306155 34.98974609 21.6496582 C40.3157116 24.89601876 45.64836837 28.13134889 50.98080444 31.36706543 C53.88611771 33.13017864 56.79092463 34.89412571 59.69580078 36.65795898 C63.8282071 39.16699086 67.96079707 41.67571988 72.09358215 44.18412781 C85.42184067 52.27376739 98.74714018 60.36821247 112.06298828 68.47827148 C116.09029376 70.93100204 120.11920105 73.38108024 124.14892578 75.82983398 C125.2055542 76.47218994 126.26218262 77.1145459 127.35083008 77.77636719 C129.38193809 79.01108088 131.4133371 80.24531604 133.44506836 81.47900391 C134.35409912 82.03177002 135.26312988 82.58453613 136.19970703 83.15405273 C137.00118164 83.64099609 137.80265625 84.12793945 138.62841797 84.62963867 C140.34611104 85.69144145 142.0351065 86.79952738 143.71533203 87.91967773 C144.08282471 90.81272888 144.08282471 90.81272888 144.07177734 94.59716797 C144.0737594 95.29193835 144.07574146 95.98670874 144.07778358 96.70253277 C144.08067227 99.04469164 144.06193303 101.38619072 144.04345703 103.72827148 C144.04131665 105.40575041 144.04046296 107.08323141 144.040802 108.76071167 C144.03646043 114.29302967 144.00143969 119.82499146 143.96533203 125.35717773 C143.95445353 127.26378243 143.94381391 129.1703885 143.93341064 131.07699585 C143.84441066 147.20544541 143.84441066 147.20544541 143.78884888 154.99208069 C143.70478853 167.72773777 143.75553906 180.45598915 143.90466309 193.19096375 C143.98858304 200.50727405 144.02295322 207.82356134 144.0431366 215.1403017 C144.0596002 220.17809215 144.10101822 225.21306889 144.1998291 230.24996948 C144.29231026 235.00228189 144.31870948 239.75052241 144.29604721 244.50363541 C144.2994776 246.24718456 144.32694967 247.99088381 144.38068008 249.73360825 C144.7583773 262.5737981 144.7583773 262.5737981 141.34193039 266.49665451 C137.50752963 269.72041839 133.22744717 271.80342632 128.71533203 273.91967773 C127.11645337 274.86691653 125.52645918 275.82988421 123.95751953 276.82592773 C122.50300308 277.6925497 121.04724522 278.55709109 119.59033203 279.41967773 C117.86855644 280.44631504 116.14722875 281.47370377 114.42626953 282.50170898 C113.51200195 283.04778809 112.59773438 283.59386719 111.65576172 284.15649414 C106.16193781 287.45078144 100.68927629 290.78000746 95.21533203 294.10717773 C94.01855753 294.83439595 92.82178016 295.56160946 91.625 296.28881836 C89.19795811 297.76371651 86.77106418 299.23885781 84.34423828 300.71411133 C79.04776837 303.93355161 73.74930982 307.14971611 68.45095825 310.36605835 C65.56896091 312.11558727 62.68706515 313.86528347 59.80517578 315.61499023 C58.94598793 316.13663002 58.94598793 316.13663002 58.06944275 316.66880798 C54.33801818 318.93432156 50.60677755 321.20013782 46.87564087 323.46612549 C44.29726134 325.03200838 41.71882336 326.59779502 39.14038086 328.16357422 C37.91216152 328.90945706 36.68397076 329.65538699 35.45581055 330.40136719 C33.75202573 331.43623607 32.04813415 332.4709292 30.34423828 333.50561523 C29.37558838 334.09391113 28.40693848 334.68220703 27.40893555 335.28833008 C26.52004639 335.8266748 25.63115723 336.36501953 24.71533203 336.91967773 C23.36556274 337.76780029 23.36556274 337.76780029 21.98852539 338.63305664 C19.71533203 339.91967773 19.71533203 339.91967773 17.71533203 339.91967773 C17.71533203 313.51967773 17.71533203 287.11967773 17.71533203 259.91967773 C24.31533203 258.92967773 30.91533203 257.93967773 37.71533203 256.91967773 C41.6268302 256.19240777 41.6268302 256.19240777 45.53564453 255.45092773 C51.27841896 254.49144699 57.06100256 253.78302747 62.83789062 253.06030273 C67.97600643 252.39322684 72.77883251 251.50153946 77.71533203 249.91967773 C65.48779278 240.39066689 65.48779278 240.39066689 53.21533203 230.91967773 C48.03217315 226.94068708 42.87102125 222.93418673 37.71533203 218.91967773 C28.38728949 211.64459134 28.38728949 211.64459134 18.99658203 204.45092773 C16.52813736 202.57223462 14.13405788 200.61884353 11.74658203 198.63842773 C3.64192858 191.58677017 3.64192858 191.58677017 -6.47216797 189.23217773 C-7.29072266 189.35206055 -8.10927734 189.47194336 -8.95263672 189.59545898 C-11.28466797 189.91967773 -11.28466797 189.91967773 -13.77294922 189.22827148 C-16.39654044 188.64230468 -16.39654044 188.64230468 -18.72216797 190.40405273 C-19.56779297 191.15170898 -20.41341797 191.89936523 -21.28466797 192.66967773 C-22.24373047 193.49983398 -23.20279297 194.32999023 -24.19091797 195.18530273 C-24.69494141 195.63196289 -25.19896484 196.07862305 -25.71826172 196.53881836 C-28.36981379 198.87628384 -31.0819785 201.14178821 -33.78466797 203.41967773 C-34.88886483 204.35714217 -35.99303171 205.29464192 -37.09716797 206.23217773 C-40.83676696 209.3964538 -44.6360066 212.48586172 -48.43701172 215.57592773 C-52.34812344 218.79494972 -56.20325205 222.07886717 -60.04638672 225.37866211 C-64.06925257 228.81197004 -64.06925257 228.81197004 -66.28466797 229.91967773 C-66.28466797 244.10967773 -66.28466797 258.29967773 -66.28466797 272.91967773 C-70.24466797 272.91967773 -74.20466797 272.91967773 -78.28466797 272.91967773 C-79.23756568 266.25740131 -79.59056974 259.64171004 -79.84716797 252.91967773 C-79.89035156 251.8587793 -79.93353516 250.79788086 -79.97802734 249.70483398 C-80.08322732 247.10990125 -80.18436291 244.51480429 -80.28466797 241.91967773 C-83.25466797 244.55967773 -86.22466797 247.19967773 -89.28466797 249.91967773 C-93.82253021 247.65074661 -95.23144954 245.8210124 -98.28466797 241.91967773 C-96.56885713 237.28698848 -94.63316549 236.54342567 -90.28466797 232.91967773 C-98.20466797 232.25967773 -106.12466797 231.59967773 -114.28466797 230.91967773 C-114.28466797 226.95967773 -114.28466797 222.99967773 -114.28466797 218.91967773 C-113.06473145 218.93651611 -111.84479492 218.95335449 -110.58789062 218.97070312 C-106.02130679 219.02169193 -101.45638862 219.01286245 -96.88964844 218.98681641 C-94.92085776 218.98375176 -92.95197199 218.99648005 -90.98339844 219.02587891 C-77.64526824 219.59704286 -77.64526824 219.59704286 -66.26513672 213.62670898 C-64.90355036 212.08776931 -63.57076934 210.52223693 -62.28466797 208.91967773 C-60.52908588 207.44301991 -58.76179086 205.97989086 -56.97216797 204.54467773 C-52.86493297 201.21949736 -48.80981354 197.84307117 -44.78466797 194.41967773 C-39.01056865 189.51221071 -33.16862912 184.69523738 -27.28466797 179.91967773 C-39.50696117 178.40082551 -51.7633686 177.3240127 -64.03466797 176.29467773 C-64.83819702 176.2264682 -65.64172607 176.15825867 -66.46960449 176.08798218 C-68.79835249 175.89095389 -71.12737796 175.69764443 -73.45654297 175.50561523 C-74.15602051 175.44633347 -74.85549805 175.3870517 -75.57617188 175.32597351 C-77.47759222 175.17198585 -79.38114482 175.0450219 -81.28466797 174.91967773 C-82.36522461 174.83218262 -83.44578125 174.7446875 -84.55908203 174.65454102 C-87.33137506 174.67024165 -87.33137506 174.67024165 -89.15576172 176.44506836 C-89.67267578 177.14825195 -90.18958984 177.85143555 -90.72216797 178.57592773 C-91.30740234 179.35194336 -91.89263672 180.12795898 -92.49560547 180.92749023 C-93.08599609 181.74991211 -93.67638672 182.57233398 -94.28466797 183.41967773 C-94.87505859 184.21116211 -95.46544922 185.00264648 -96.07373047 185.81811523 C-97.24859718 187.39668064 -98.41539988 188.98128242 -99.57373047 190.57202148 C-102.10747822 194.04869363 -104.69670486 197.48327983 -107.28466797 200.91967773 C-110.06027928 199.56215147 -112.53795074 198.11920187 -115.03466797 196.29467773 C-115.95505859 195.6256543 -115.95505859 195.6256543 -116.89404297 194.94311523 C-117.35294922 194.60538086 -117.81185547 194.26764648 -118.28466797 193.91967773 C-113.61028048 186.66062892 -108.51213837 179.78508886 -103.28466797 172.91967773 C-107.57466797 172.58967773 -111.86466797 172.25967773 -116.28466797 171.91967773 C-116.28466797 167.62967773 -116.28466797 163.33967773 -116.28466797 158.91967773 C-111.99466797 158.91967773 -107.70466797 158.91967773 -103.28466797 158.91967773 C-104.22310547 157.58291992 -105.16154297 156.24616211 -106.12841797 154.86889648 C-107.34753415 153.11524474 -108.5662642 151.36132453 -109.78466797 149.60717773 C-110.71472656 148.28556641 -110.71472656 148.28556641 -111.66357422 146.93725586 C-112.25009766 146.08969727 -112.83662109 145.24213867 -113.44091797 144.36889648 C-113.98554687 143.58861084 -114.53017578 142.8083252 -115.09130859 142.00439453 C-116.28466797 139.91967773 -116.28466797 139.91967773 -116.28466797 136.91967773 C-114.64013672 135.27905273 -114.64013672 135.27905273 -112.47216797 133.66967773 C-111.410625 132.85756836 -111.410625 132.85756836 -110.32763672 132.02905273 C-109.65345703 131.66295898 -108.97927734 131.29686523 -108.28466797 130.91967773 C-104.78322823 132.08682431 -104.37140149 132.86285439 -102.39404297 135.85717773 C-101.84876953 136.67057617 -101.30349609 137.48397461 -100.74169922 138.32202148 C-100.17837891 139.17924805 -99.61505859 140.03647461 -99.03466797 140.91967773 C-95.10036529 146.8535319 -91.08141552 152.58650066 -86.57861328 158.10717773 C-85.28466797 159.91967773 -85.28466797 159.91967773 -85.28466797 161.91967773 C-84.69847687 161.90952637 -84.11228577 161.899375 -83.5083313 161.88891602 C-76.82392698 161.82475699 -70.24673311 162.22372429 -63.58935547 162.79467773 C-62.51589874 162.88346191 -61.44244202 162.97224609 -60.3364563 163.0637207 C-56.94386027 163.34519774 -53.55177229 163.63234201 -50.15966797 163.91967773 C-47.84459516 164.11276245 -45.52949124 164.30547442 -43.21435547 164.49780273 C-37.57075943 164.96745326 -31.92756827 165.44174422 -26.28466797 165.91967773 C-26.05192111 161.24316377 -26.04687939 158.36883573 -28.85498047 154.56420898 C-29.41548096 153.7861792 -29.97598145 153.00814941 -30.5534668 152.20654297 C-31.16601318 151.39000244 -31.77855957 150.57346191 -32.40966797 149.73217773 C-33.68736321 147.96941161 -34.9646958 146.20638259 -36.24169922 144.44311523 C-36.90508301 143.53916016 -37.5684668 142.63520508 -38.25195312 141.70385742 C-41.59190238 137.12917795 -44.84408742 132.49381579 -48.09716797 127.85717773 C-48.70125488 127.00679932 -49.3053418 126.1564209 -49.92773438 125.28027344 C-50.48509277 124.48967529 -51.04245117 123.69907715 -51.61669922 122.88452148 C-52.10887939 122.18963623 -52.60105957 121.49475098 -53.1081543 120.77880859 C-54.28466797 118.91967773 -54.28466797 118.91967773 -55.28466797 115.91967773 C-68.15466797 115.91967773 -81.02466797 115.91967773 -94.28466797 115.91967773 C-94.28466797 111.62967773 -94.28466797 107.33967773 -94.28466797 102.91967773 C-85.04466797 102.58967773 -75.80466797 102.25967773 -66.28466797 101.91967773 C-68.92466797 98.28967773 -71.56466797 94.65967773 -74.28466797 90.91967773 C-70.50148581 87.13649557 -67.85930229 85.38294237 -63.28466797 82.91967773 C-60.64466797 86.54967773 -58.00466797 90.17967773 -55.28466797 93.91967773 C-53.29713907 85.60819325 -51.60697893 77.36212462 -50.28466797 68.91967773 C-45.99466797 69.57967773 -41.70466797 70.23967773 -37.28466797 70.91967773 C-38.01866689 80.0263853 -39.76678359 88.79435819 -41.64404297 97.72631836 C-41.86833984 98.83813477 -42.09263672 99.94995117 -42.32373047 101.09545898 C-42.5320752 102.09488525 -42.74041992 103.09431152 -42.95507812 104.12402344 C-43.68920542 110.35105433 -41.11305757 114.08289671 -37.59716797 118.98217773 C-37.12037598 119.66175537 -36.64358398 120.34133301 -36.15234375 121.04150391 C-34.5378034 123.33999223 -32.91157225 125.62992643 -31.28466797 127.91967773 C-29.37167594 130.62447605 -27.46141434 133.33113657 -25.55493164 136.04052734 C-24.30538238 137.81513518 -23.05172639 139.58685945 -21.79370117 141.35546875 C-21.22095459 142.16685303 -20.64820801 142.9782373 -20.05810547 143.81420898 C-19.54683105 144.53455322 -19.03555664 145.25489746 -18.50878906 145.99707031 C-17.28466797 147.91967773 -17.28466797 147.91967773 -16.28466797 150.91967773 C-15.74841797 150.61030273 -15.21216797 150.30092773 -14.65966797 149.98217773 C-11.8872103 148.74186772 -9.27682047 148.37464887 -6.28466797 147.91967773 C-6.13843994 146.73414307 -5.99221191 145.5486084 -5.84155273 144.32714844 C-5.29737837 139.91936157 -4.75074169 135.51188294 -4.20336914 131.10449219 C-3.96702211 129.19865067 -3.73133862 127.29272674 -3.49633789 125.38671875 C-3.15800529 122.64357808 -2.81727009 119.9007448 -2.47607422 117.15795898 C-2.37186661 116.30881424 -2.267659 115.45966949 -2.16029358 114.58479309 C-1.56257391 109.80168173 -0.81075063 105.1320121 0.30517578 100.43920898 C1.20169437 93.45845189 -0.8457957 89.50027296 -4.95239258 84.08837891 C-7.38265866 81.0662815 -9.86568721 78.09649988 -12.39453125 75.15649414 C-15.47928086 71.50595476 -18.38024698 67.71424428 -21.28466797 63.91967773 C-19.875371 60.44835679 -18.37861714 59.03874499 -15.15966797 57.16967773 C-14.07298828 56.52772461 -14.07298828 56.52772461 -12.96435547 55.87280273 C-12.13291016 55.40100586 -12.13291016 55.40100586 -11.28466797 54.91967773 C-9.13577754 57.54218843 -6.99108424 60.16809969 -4.84716797 62.79467773 C-3.92967773 63.91422852 -3.92967773 63.91422852 -2.99365234 65.05639648 C-2.41035156 65.77182617 -1.82705078 66.48725586 -1.22607422 67.22436523 C-0.41698608 68.21412354 -0.41698608 68.21412354 0.40844727 69.22387695 C1.71533203 70.91967773 1.71533203 70.91967773 2.71533203 72.91967773 C4.3787604 71.25624936 4.075813 69.13710684 4.27783203 66.85717773 C4.42220703 65.22780273 4.56658203 63.59842773 4.71533203 61.91967773 C9.00533203 62.57967773 13.29533203 63.23967773 17.71533203 63.91967773 C17.71533203 67.87967773 17.71533203 71.83967773 17.71533203 75.91967773 C28.11033203 70.96967773 28.11033203 70.96967773 38.71533203 65.91967773 C44.71533203 73.91967773 44.71533203 73.91967773 44.71533203 77.91967773 C40.62431852 79.91847995 36.53086998 81.91217075 32.43505859 83.90112305 C31.04146952 84.57875168 29.64856159 85.25778297 28.25634766 85.93823242 C26.2574636 86.91489515 24.25620067 87.88652118 22.25439453 88.85717773 C21.6303775 89.16341064 21.00636047 89.46964355 20.36343384 89.78515625 C15.94307544 91.91967773 15.94307544 91.91967773 13.71533203 91.91967773 C13.73708496 92.46390381 13.75883789 93.00812988 13.78125 93.56884766 C13.95241571 101.560656 12.91575365 109.32830471 11.84033203 117.23217773 C11.66399154 118.56999476 11.48820761 119.90788528 11.31298828 121.24584961 C10.34546451 128.57194719 9.28425861 135.87911592 8.11474609 143.17578125 C7.5693982 146.92221464 7.29593423 150.14509753 7.71533203 153.91967773 C9.66917145 155.64330344 9.66917145 155.64330344 11.71533203 156.91967773 C12.74529297 156.25323242 13.77525391 155.58678711 14.83642578 154.90014648 C15.51568115 154.46065674 16.19493652 154.02116699 16.89477539 153.56835938 C18.42303736 152.57942567 19.95119185 151.59032584 21.47924805 150.60107422 C25.3159305 148.11754765 29.15385164 145.63602544 32.99658203 143.16186523 C34.38210763 142.26880504 35.76752491 141.37557679 37.15283203 140.48217773 C37.83925781 140.03986816 38.52568359 139.59755859 39.23291016 139.1418457 C43.08530915 136.65063959 46.91121395 134.12471208 50.71533203 131.56030273 C51.95198608 130.72776978 51.95198608 130.72776978 53.21362305 129.87841797 C54.8132999 128.7987842 56.4102492 127.71509562 58.00415039 126.62695312 C58.72223877 126.14218506 59.44032715 125.65741699 60.18017578 125.15795898 C60.81560303 124.72523682 61.45103027 124.29251465 62.10571289 123.84667969 C63.71533203 122.91967773 63.71533203 122.91967773 65.71533203 122.91967773 C65.78880859 120.97641602 65.78880859 120.97641602 65.86376953 118.99389648 C66.35936796 106.90152368 67.30054901 94.93846551 68.71533203 82.91967773 C73.23150802 82.84313238 77.3061842 82.81739078 81.71533203 83.91967773 C81.88811761 94.36360622 81.88811761 94.36360622 81.21533203 99.04467773 C80.65654323 103.37529091 80.62456325 107.56277643 80.71533203 111.91967773 C81.48619141 111.41436523 82.25705078 110.90905273 83.05126953 110.38842773 C84.05416016 109.73874023 85.05705078 109.08905273 86.09033203 108.41967773 C87.08806641 107.76999023 88.08580078 107.12030273 89.11376953 106.45092773 C91.71533203 104.91967773 91.71533203 104.91967773 93.71533203 104.91967773 C95.69533203 108.54967773 97.67533203 112.17967773 99.71533203 115.91967773 C96.74533203 117.89967773 93.77533203 119.87967773 90.71533203 121.91967773 C96.72491196 123.62610167 102.50585597 125.22973595 108.71533203 125.91967773 C108.57448408 127.71174321 108.42749502 129.5033269 108.27783203 131.29467773 C108.19662109 132.29241211 108.11541016 133.29014648 108.03173828 134.31811523 C107.71533203 136.91967773 107.71533203 136.91967773 106.71533203 138.91967773 C102.28625556 138.43273833 97.95268445 137.80453707 93.58642578 136.91186523 C92.2512793 136.63922852 92.2512793 136.63922852 90.88916016 136.36108398 C89.05963262 135.98238092 87.23149133 135.59692017 85.40478516 135.20483398 C78.15349915 133.74300838 72.86583232 133.42658604 66.35986328 137.40405273 C64.74087256 138.48019058 63.13059918 139.5695227 61.52783203 140.66967773 C59.74943676 141.85885462 57.97078346 143.0476457 56.19189453 144.23608398 C54.83306152 145.15284912 54.83306152 145.15284912 53.44677734 146.08813477 C49.13299235 148.98069957 44.7661296 151.79011979 40.40283203 154.60717773 C35.64351017 157.68991501 30.89549868 160.78564312 26.19580078 163.95874023 C25.49946533 164.42836182 24.80312988 164.8979834 24.08569336 165.38183594 C22.78966157 166.25891312 21.4963576 167.14003966 20.20629883 168.02587891 C15.93392217 170.91967773 15.93392217 170.91967773 13.71533203 170.91967773 C13.49876953 172.52842773 13.49876953 172.52842773 13.27783203 174.16967773 C12.8764323 176.84567593 12.4001581 179.31848964 11.71533203 181.91967773 C13.03523158 182.93498508 14.35513405 183.95028863 15.67504883 184.96557617 C16.84713478 185.86720623 18.01917091 186.76890107 19.19116211 187.6706543 C22.07309871 189.88794115 24.9557843 192.10422485 27.84033203 194.31811523 C34.93595407 199.7665393 42.00325041 205.25042179 49.06176758 210.74682617 C53.43593914 214.15147678 57.81850574 217.54433634 62.21533203 220.91967773 C68.17941314 225.49816424 74.11369947 230.11429881 80.04541016 234.73461914 C84.58901936 238.27186724 89.14472424 241.79240727 93.71533203 245.29467773 C99.10650291 249.43224726 104.42973351 253.64824597 109.71533203 257.91967773 C107.38476268 260.25024709 106.47144718 260.33249291 103.28955078 260.84936523 C102.36247314 261.00284424 101.43539551 261.15632324 100.48022461 261.31445312 C99.46468506 261.47292725 98.44914551 261.63140137 97.40283203 261.79467773 C96.34410889 261.96539795 95.28538574 262.13611816 94.19458008 262.31201172 C82.20872065 264.21376924 70.18267288 265.82909195 58.15625 267.44946289 C52.08864696 268.27862448 46.02870187 269.16182048 39.97045898 270.05664062 C36.85796188 270.50946584 33.86538369 270.91967773 30.71533203 270.91967773 C30.71533203 286.09967773 30.71533203 301.27967773 30.71533203 316.91967773 C39.95769332 311.72084951 49.00421272 306.57046705 57.93408203 300.91186523 C64.06808918 297.05259716 70.26882408 293.30236469 76.46533203 289.54467773 C77.07258118 289.17630798 77.67983032 288.80793823 78.30548096 288.42840576 C86.66963033 283.35603452 95.04391017 278.30061755 103.44482422 273.28930664 C104.91587237 272.41026567 106.3709344 271.50412641 107.81225586 270.57714844 C110.28154975 269.16733965 112.63029666 268.11174573 115.24926758 267.03369141 C124.13150743 263.06609965 124.13150743 263.06609965 129.68908691 255.47497559 C131.25235906 247.73527633 130.612146 239.81920365 130.27783203 231.98217773 C130.23077062 229.30332109 130.19192518 226.62578245 130.16625977 223.94677734 C130.11772701 219.48267492 130.05931123 215.01950151 129.96180725 210.5561676 C129.66278896 196.53762599 129.76283759 182.53337633 129.93408203 168.51342773 C129.94778273 167.37883055 129.96148342 166.24423336 129.97559929 165.07525444 C130.03163348 160.48455367 130.08891119 155.89387175 130.14837551 151.30321407 C130.29321276 140.08858638 130.40155802 128.87371763 130.50366211 117.65863037 C130.53985474 113.68979406 130.57718844 109.72096882 130.614501 105.75214291 C130.64840116 102.14132385 130.68188956 98.53050106 130.71533203 94.91967773 C129.9458876 94.62098282 129.17644318 94.3222879 128.38368225 94.01454163 C125.41087827 92.79475581 122.82637353 91.28215321 120.08642578 89.60327148 C118.98322998 88.93013916 117.88003418 88.25700684 116.7434082 87.56347656 C115.54652761 86.82807921 114.34966949 86.09264528 113.15283203 85.35717773 C111.90348419 84.59334871 110.65388668 83.82992791 109.40405273 83.06689453 C106.80437602 81.47935068 104.20578561 79.89005013 101.60791016 78.29956055 C96.13326758 74.94985856 90.64466572 71.62320506 85.15652466 68.29568481 C75.2446808 62.28475909 65.34099542 56.26041891 55.44116211 50.22973633 C50.82477485 47.41829757 46.20661992 44.60984127 41.58403015 41.80860901 C40.39202489 41.08626413 39.20014121 40.36371859 38.00837708 39.64097595 C35.01664695 37.82671106 32.02356225 36.01476808 29.02758789 34.20751953 C23.45172276 30.83809899 17.9123864 27.42627316 12.44580078 23.88061523 C11.48367676 23.26259033 10.52155273 22.64456543 9.53027344 22.0078125 C7.74252158 20.85451116 5.96416108 19.68647165 4.19726562 18.50146484 C3.4104541 17.99623291 2.62364258 17.49100098 1.81298828 16.97045898 C1.1376001 16.52355713 0.46221191 16.07665527 -0.23364258 15.61621094 C-2.34023207 14.68244593 -2.34023207 14.68244593 -4.73266602 15.63012695 C-5.57482666 16.05567871 -6.4169873 16.48123047 -7.28466797 16.91967773 C-8.07856934 17.32033447 -8.8724707 17.72099121 -9.69042969 18.13378906 C-10.5233252 18.58520264 -11.3562207 19.03661621 -12.21435547 19.50170898 C-13.16205811 20.01451416 -14.10976074 20.52731934 -15.08618164 21.05566406 C-16.10043213 21.60891357 -17.11468262 22.16216309 -18.15966797 22.73217773 C-19.22612549 23.31185303 -20.29258301 23.89152832 -21.39135742 24.48876953 C-29.40399492 28.85870831 -37.35843345 33.32566098 -45.29296875 37.83544922 C-53.00770171 42.21476743 -60.76347313 46.51673905 -68.53466797 50.79467773 C-69.14553253 51.1310022 -69.75639709 51.46732666 -70.38577271 51.81384277 C-70.99766449 52.1507312 -71.60955627 52.48761963 -72.23999023 52.8347168 C-73.47624369 53.51536867 -74.71249044 54.19603272 -75.94873047 54.87670898 C-76.56076828 55.21366791 -77.17280609 55.55062683 -77.8033905 55.89779663 C-87.50015782 61.23871921 -97.1707502 66.62688422 -106.84521484 72.00805664 C-110.49561657 74.03692131 -114.14776891 76.06260644 -117.80029297 78.08764648 C-119.65455661 79.11613599 -121.50877575 80.14470568 -123.36297607 81.17330933 C-125.11471778 82.14475028 -126.86692317 83.11535494 -128.61914062 84.0859375 C-129.68181152 84.67560303 -130.74448242 85.26526855 -131.83935547 85.87280273 C-132.77247559 86.39003906 -133.7055957 86.90727539 -134.66699219 87.44018555 C-136.46732931 88.4577236 -138.24441448 89.51716783 -140 90.61010742 C-142.28466797 91.91967773 -142.28466797 91.91967773 -144.28466797 91.91967773 C-144.62184898 112.96464969 -144.84370514 134.00805836 -144.92975998 155.05561447 C-144.97238614 164.8296004 -145.05217624 174.60059811 -145.22070312 184.37329102 C-145.3675689 192.89542599 -145.44343739 201.41479661 -145.43547082 209.9382441 C-145.43369751 214.44944239 -145.46649096 218.95419394 -145.58446503 223.46398163 C-146.85203287 241.28794604 -146.85203287 241.28794604 -141.36610413 257.54844666 C-136.75333801 261.67493177 -131.68153141 263.92800667 -125.87770557 265.91496372 C-121.56373849 267.58647946 -117.85332324 270.15446764 -114.03466797 272.73217773 C-112.73299683 273.55697632 -112.73299683 273.55697632 -111.4050293 274.3984375 C-110.71175537 274.83986084 -110.01848145 275.28128418 -109.30419922 275.73608398 C-92.1094707 286.6576611 -74.76754288 297.34406601 -57.40820312 308.0012207 C-52.03138793 311.30362916 -46.65812331 314.61180583 -41.28466797 317.91967773 C-40.49290668 315.08287817 -40.11724786 312.45815517 -39.98754883 309.51831055 C-39.94758286 308.65772034 -39.90761688 307.79713013 -39.86643982 306.91046143 C-39.80856041 305.53057037 -39.80856041 305.53057037 -39.74951172 304.12280273 C-39.70653458 303.17403259 -39.66355743 302.22526245 -39.61927795 301.2477417 C-39.48309066 298.22187659 -39.35255863 295.19579763 -39.22216797 292.16967773 C-39.13074384 290.11627569 -39.03895136 288.06289001 -38.94677734 286.00952148 C-38.72180179 280.97975338 -38.50189732 275.9497861 -38.28466797 270.91967773 C-34.32466797 270.91967773 -30.36466797 270.91967773 -26.28466797 270.91967773 C-26.18288566 285.59894903 -26.23656627 300.2484248 -26.72216797 314.91967773 C-26.76140381 316.13929199 -26.80063965 317.35890625 -26.84106445 318.61547852 C-27.10798494 326.07388258 -27.59142628 333.48880729 -28.28466797 340.91967773 C-31.5361216 339.68450846 -34.50137328 338.31451879 -37.47998047 336.52124023 C-38.26816162 336.04823486 -39.05634277 335.57522949 -39.8684082 335.08789062 C-40.70702393 334.57863037 -41.54563965 334.06937012 -42.40966797 333.54467773 C-43.29275635 333.01156982 -44.17584473 332.47846191 -45.08569336 331.92919922 C-51.79974984 327.85987481 -58.45088338 323.69584035 -65.07739258 319.48583984 C-70.8504874 315.81819181 -76.6523116 312.20012618 -82.47216797 308.60717773 C-89.98845663 303.96623848 -97.48605518 299.29663104 -104.97216797 294.60717773 C-111.33153509 290.62408843 -117.69931128 286.65564836 -124.09326172 282.72827148 C-124.66370712 282.37784286 -125.23415253 282.02741425 -125.82188416 281.66636658 C-128.556229 279.98744929 -131.29200625 278.31091852 -134.02954102 276.63720703 C-136.00202618 275.42815225 -137.96463195 274.20276871 -139.91496181 272.95829105 C-142.25264493 271.54403363 -144.4419721 270.33839392 -146.88834476 269.17636013 C-152.28755425 266.45190522 -156.46443453 264.17298873 -158.60032463 258.30536079 C-159.30549986 253.81944243 -159.21422722 249.33622531 -159.14379883 244.80859375 C-159.16771156 243.07958239 -159.19751899 241.3506441 -159.23274231 239.62182617 C-159.30912692 234.9449422 -159.29705874 230.27224073 -159.26401973 225.5949986 C-159.2445939 221.68330501 -159.26897447 217.77237956 -159.2933026 213.86075157 C-159.3501392 204.6289584 -159.33558293 195.39919476 -159.2746582 186.16748047 C-159.21300374 176.65940803 -159.26403594 167.15674289 -159.37197965 157.64920479 C-159.46128323 149.47017667 -159.48421445 141.29282112 -159.45355707 133.11336273 C-159.43569176 128.23491993 -159.44165562 123.35963442 -159.5099926 118.48156929 C-159.88130454 88.91813418 -159.88130454 88.91813418 -155.61164093 82.34345055 C-151.72134925 78.6178357 -147.50396229 76.80992451 -142.33647442 75.49442577 C-139.34320229 74.6559562 -136.83705307 73.14510019 -134.18310547 71.55639648 C-132.34334925 70.57072545 -130.50219474 69.58765997 -128.65966797 68.60717773 C-120.75358465 64.36186583 -112.89763401 60.04358166 -105.09716797 55.60717773 C-96.44471026 50.68845826 -87.75354231 45.8443013 -79.03466797 41.04467773 C-78.42380341 40.70835327 -77.81293884 40.37202881 -77.18356323 40.0255127 C-76.57167145 39.68862427 -75.95977966 39.35173584 -75.3293457 39.00463867 C-74.09309224 38.3239868 -72.8568455 37.64332274 -71.62060547 36.96264648 C-71.00856766 36.62568756 -70.39652985 36.28872864 -69.76594543 35.94155884 C-60.06631412 30.59905878 -50.39272244 25.2095444 -40.71533203 19.8269043 C-37.09089561 17.81195288 -33.46528493 15.79912803 -29.83935547 13.78686523 C-27.99829855 12.76492582 -26.15725904 11.74295507 -24.31622314 10.72097778 C-22.58628594 9.76082678 -20.85613453 8.80106174 -19.12597656 7.84130859 C-18.06975098 7.25486572 -17.01352539 6.66842285 -15.92529297 6.06420898 C-15.00264648 5.55220947 -14.08 5.04020996 -13.12939453 4.51269531 C-10.42688215 3.06834639 -10.42688215 3.06834639 -8.60995483 1.72016907 C-5.24146872 -0.5717428 -3.95234116 -1.29991896 0 0 Z " fill="#282425" transform="translate(166.28466796875,8.080322265625)"/>
<path d="M0 0 C3.86345353 0.05539001 6.19882712 0.7372694 9.25 3.25 C11.82189679 6.67919572 11.752142 10.08939486 11.25 14.25 C9.46523759 17.22239241 7.39791945 19.67604027 4.25 21.25 C-2.88230769 21.95153846 -2.88230769 21.95153846 -6.6875 18.875 C-9.54586094 15.23708608 -10.13884517 12.97578146 -10.11328125 8.2890625 C-9.50965397 4.900961 -7.3344052 3.33013101 -4.75 1.25 C-3.75 0.25 -3.75 0.25 0 0 Z " fill="#282425" transform="translate(171.75,222.75)"/>
</svg>
